<svg xmlns="http://www.w3.org/2000/svg" version="1.1" xmlns:xlink="http://www.w3.org/1999/xlink" xmlns:svgjs="http://svgjs.com/svgjs" width="1000" height="1000" overflow="visible"><g class="overview-logo-monotone" opacity="1"><defs id="SvgjsDefs1002"></defs><g id="SvgjsG1008" transform="scale(1.2311688311688307)" opacity="1"><g id="SvgjsG1009" class="Uf7Ycxccd" transform="translate(0, 0) scale(0.4247943852431372)" light-content="false" non-strokable="false" fill="#ffffff"><circle cx="133.8" cy="133.8" r="133.8"></circle></g><g id="SvgjsG1010" class="text" transform="translate(297.9722603198514, 74.21974085169765) scale(1)" light-content="false" fill="#ffffff"><path d="M-162.27 -27.81L-162.27 0L-156.7 0L-156.7 -9.1C-155.8 -8.97 -154.71 -8.84 -153.43 -8.7C-152.16 -8.56 -151.12 -8.49 -150.31 -8.49C-145.13 -8.49 -142.53 -11.75 -142.53 -18.27C-142.53 -22.02 -143.29 -24.55 -144.79 -25.86C-146.29 -27.16 -148.21 -27.81 -150.54 -27.81ZM-151.18 -13.49L-156.7 -13.49L-156.7 -22.81L-151.07 -22.81C-149.11 -22.81 -148.13 -21.28 -148.13 -18.23C-148.13 -16.57 -148.39 -15.37 -148.9 -14.62C-149.42 -13.87 -150.18 -13.49 -151.18 -13.49Z M-133.14 -1.01C-131.79 -0.21 -130.21 0.19 -128.4 0.19C-123.99 0.19 -120.12 0 -116.79 -0.38L-116.79 -5.04L-127.28 -5.04C-128.83 -5.04 -129.61 -5.86 -129.61 -7.52L-129.61 -11.35L-118.59 -11.65L-118.59 -16.05L-129.61 -16.35L-129.61 -20.37C-129.61 -21.9 -128.79 -22.66 -127.16 -22.66L-116.79 -22.66L-116.79 -27.32C-120.97 -27.65 -124.98 -27.81 -128.82 -27.81C-130.57 -27.81 -132.07 -27.32 -133.31 -26.33C-134.55 -25.34 -135.17 -23.72 -135.17 -21.46L-135.17 -5.94C-135.17 -3.46 -134.49 -1.82 -133.14 -1.01ZM-124.12 -34.99L-127.24 -29.73L-123.97 -29.73L-119.65 -34.99Z M-95.33 -27.81L-95.33 0L-89.73 0L-89.73 -18.34L-78.12 0L-73.64 0L-73.64 -27.81L-79.21 -27.81L-79.21 -9.47L-90.86 -27.81Z M-58.35 -27.81L-67.07 0L-61.35 0L-59.63 -5.83L-50.15 -5.83L-48.39 0L-42.6 0L-51.32 -27.81ZM-51.47 -10.82L-58.31 -10.82L-54.89 -23.04Z M-20.31 -1.01C-18.96 -0.21 -17.38 0.19 -15.58 0.19C-11.17 0.19 -7.3 0 -3.97 -0.38L-3.97 -5.04L-14.45 -5.04C-16 -5.04 -16.78 -5.86 -16.78 -7.52L-16.78 -11.35L-5.77 -11.65L-5.77 -16.05L-16.78 -16.35L-16.78 -20.37C-16.78 -21.9 -15.97 -22.66 -14.34 -22.66L-3.97 -22.66L-3.97 -27.32C-8.15 -27.65 -12.16 -27.81 -15.99 -27.81C-17.75 -27.81 -19.24 -27.32 -20.48 -26.33C-21.72 -25.34 -22.34 -23.72 -22.34 -21.46L-22.34 -5.94C-22.34 -3.46 -21.67 -1.82 -20.31 -1.01Z M7.65 -0.04C9.28 0.14 10.81 0.23 12.23 0.23C14.31 0.23 16.05 0.01 17.46 -0.43C18.86 -0.87 19.95 -1.67 20.73 -2.84C21.5 -4 21.89 -5.64 21.89 -7.74L21.89 -9.32C21.89 -11.45 21.26 -13.17 19.99 -14.49C18.73 -15.8 16.89 -16.46 14.49 -16.46L11.74 -16.46C10.64 -16.46 9.82 -16.68 9.28 -17.12C8.74 -17.56 8.48 -18.25 8.48 -19.21L8.48 -19.96C8.48 -21.13 8.84 -21.94 9.56 -22.38C10.29 -22.82 11.37 -23.04 12.8 -23.04C14.55 -23.04 17.14 -22.93 20.58 -22.7L20.58 -27.1C19.37 -27.35 18.02 -27.57 16.52 -27.76C15.01 -27.94 13.56 -28.04 12.16 -28.04C6.17 -28.04 3.18 -25.43 3.18 -20.22L3.18 -18.87C3.18 -16.14 3.86 -14.17 5.22 -12.97C6.59 -11.76 8.65 -11.16 11.41 -11.16L13.77 -11.16C14.68 -11.16 15.37 -10.94 15.86 -10.5C16.35 -10.07 16.59 -9.43 16.59 -8.61L16.59 -7.59C16.59 -6.54 16.2 -5.81 15.43 -5.39C14.65 -4.98 13.5 -4.77 11.97 -4.77C8.56 -4.77 5.74 -4.89 3.51 -5.11L3.51 -0.71C4.64 -0.44 6.02 -0.21 7.65 -0.04Z M35.57 -22.81L35.57 0L41.13 0L41.13 -22.81L48.8 -22.81L48.8 -27.81L27.94 -27.81L27.94 -22.81Z M55.57 -27.81L55.57 0L61.13 0L61.13 -10.37C62.93 -10.32 64.44 -10.3 65.64 -10.3L70.11 0L75.79 0L70.6 -11.16C71.95 -11.74 73.02 -12.59 73.81 -13.72C74.6 -14.85 75 -16.57 75 -18.9C75 -22.21 74.29 -24.52 72.87 -25.84C71.46 -27.15 69.52 -27.81 67.07 -27.81ZM66.09 -14.77L61.13 -14.77L61.13 -22.81L66.09 -22.81C67.17 -22.81 67.99 -22.53 68.57 -21.97C69.15 -21.4 69.44 -20.38 69.44 -18.9C69.44 -17.38 69.15 -16.3 68.57 -15.69C67.99 -15.08 67.17 -14.77 66.09 -14.77Z M89.84 -27.81L81.12 0L86.84 0L88.56 -5.83L98.04 -5.83L99.8 0L105.59 0L96.87 -27.81ZM96.72 -10.82L89.88 -10.82L93.3 -23.04Z M112.39 -27.81L112.39 0L124.16 0C127.41 0 129.84 -1.15 131.45 -3.44C133.05 -5.73 133.85 -9.22 133.85 -13.91C133.85 -18.37 133.13 -21.8 131.67 -24.2C130.22 -26.61 127.71 -27.81 124.16 -27.81ZM123.59 -5L117.96 -5L117.96 -22.81L123.59 -22.81C124.69 -22.81 125.58 -22.56 126.26 -22.06C126.94 -21.56 127.44 -20.66 127.78 -19.37C128.12 -18.08 128.29 -16.26 128.29 -13.91C128.29 -10.9 127.93 -8.66 127.2 -7.2C126.47 -5.73 125.27 -5 123.59 -5Z M148.28 -27.81L139.57 0L145.28 0L147.01 -5.83L156.48 -5.83L158.24 0L164.03 0L155.31 -27.81ZM155.16 -10.82L148.32 -10.82L151.74 -23.04Z"></path></g><g id="SvgjsG1011" class="FZ06bgYUh" transform="translate(22.824740556970642, 22.310313216974087) scale(1.3810870729970908)" light-content="true" non-strokable="false" fill="#29292E"><path d="M28 36v13h18.621L37.848 1H28v12h-5V1h-9.874L4.291 49H23V36h5zm-5-18h5v14h-5V18z"></path></g></g></g></svg>